<svg xmlns="http://www.w3.org/2000/svg" viewBox="0 0 526.9 239.1"><path fill="#06051d" d="M32 179.1a32.1 32.1 0 0 1-32 32.1v27.9a59.9 59.9 0 0 0 59.8-60v-104A158.3 158.3 0 0 0 32 90.6ZM467.1 59.8a59.8 59.8 0 1 0 0 119.5h12.5v-27.8h-12.5a32 32 0 1 1 32-32v59.8h27.8v-59.8a59.7 59.7 0 0 0-59.8-59.7Zm-189.1 0a59 59 0 0 0-31.9 9.3V0h-27.8v179.3h27.8v-59.8a32 32 0 0 1 63.9 0v59.8h27.8v-59.8A59.7 59.7 0 0 0 278 59.8Zm80.7 119.5h27.8V90.6a162 162 0 0 0-27.8-15.5ZM137.6 59.8a59.8 59.8 0 1 0 0 119.5h12.5v-27.8h-12.5a32 32 0 1 1 32-32v59.8h27.8v-59.8a59.7 59.7 0 0 0-59.8-59.7Z"/><path fill="#00a0e3" d="M358.7 38.8v17.8a185.8 185.8 0 0 1 27.8 14.1V38.8Zm-298.9 0v17.8A176.7 176.7 0 0 0 32 70.7V38.8Z"/></svg>
