<svg xmlns="http://www.w3.org/2000/svg" width="767" height="484" fill="none"><g clip-path="url(#a)" opacity=".32"><path stroke="#E5E5EC" stroke-opacity=".32" d="M0 596.084h959.419M0 449.384h959.419M0 302.684h959.419M0 155.984h959.419M0 522.735h959.419M0 376.034h959.419M0 229.334h959.419M0 82.634h959.419M0 9.095h959.419M76.283-67V672.37M222.984-67v739.368M369.684-67v739.368M516.385-67V672.37M663.084-67V672.37M149.635-67V672.37M296.334-67v739.368M443.035-67v739.368M589.734-67V672.37M809.785-67V672.37M883.135-67v739.368M736.436-67V672.37"/><path stroke="#00A1E3" stroke-width="2" d="M76.283-5.386v29.34M90.953 9.284h-29.34M76.283 141.314v29.34M90.953 155.984h-29.34M76.283 67.964v29.34M90.953 82.634h-29.34M76.283 214.664v29.34M90.953 229.334h-29.34M76.283 361.364v29.34M90.953 376.034h-29.34M76.283 508.064v29.34M90.953 522.734h-29.34M76.283 288.014v29.34M90.953 302.684h-29.34M76.283 434.714v29.34M90.953 449.384h-29.34M76.283 581.414v29.34M90.953 596.084h-29.34M149.633-5.386v29.34M164.303 9.284h-29.34M149.633 141.314v29.34M164.303 155.984h-29.34M149.633 67.964v29.34M164.303 82.634h-29.34M149.633 214.664v29.34M164.303 229.334h-29.34M149.633 361.364v29.34M164.303 376.034h-29.34M149.633 508.064v29.34M164.303 522.734h-29.34M149.633 288.014v29.34M164.303 302.684h-29.34M149.633 434.714v29.34M164.303 449.384h-29.34M149.633 581.414v29.34M164.303 596.084h-29.34M296.334-5.386v29.34M311.004 9.284h-29.34M296.334 141.314v29.34M311.004 155.984h-29.34M296.334 67.964v29.34M311.004 82.634h-29.34M296.334 214.664v29.34M311.004 229.334h-29.34M296.334 361.364v29.34M311.004 376.034h-29.34M296.334 508.064v29.34M311.004 522.734h-29.34M296.334 288.014v29.34M311.004 302.684h-29.34M296.334 434.714v29.34M311.004 449.384h-29.34M296.334 581.415v29.34M311.004 596.085h-29.34M443.033-5.386v29.34M457.703 9.284h-29.34M443.033 141.314v29.34M457.703 155.984h-29.34M443.033 67.964v29.34M457.703 82.634h-29.34M443.033 214.664v29.34M457.703 229.334h-29.34M443.033 361.364v29.34M457.703 376.034h-29.34M443.033 508.064v29.34M457.703 522.734h-29.34M443.033 288.014v29.34M457.703 302.684h-29.34M443.033 434.714v29.34M457.703 449.384h-29.34M443.033 581.415v29.34M457.703 596.085h-29.34M589.734-5.386v29.34M604.404 9.284h-29.34M589.734 141.314v29.34M604.404 155.984h-29.34M589.734 67.964v29.34M604.404 82.634h-29.34M589.734 214.664v29.34M604.404 229.334h-29.34M589.734 361.364v29.34M604.404 376.034h-29.34M589.734 508.065v29.34M604.404 522.734h-29.34M589.734 288.014v29.34M604.404 302.684h-29.34M589.734 434.714v29.34M604.404 449.384h-29.34M589.734 581.415v29.34M604.404 596.085h-29.34M736.434-5.386v29.34M751.104 9.284h-29.341M736.434 141.314v29.34M751.104 155.984h-29.341M736.434 67.964v29.34M751.104 82.634h-29.341M736.434 214.664v29.34M751.104 229.334h-29.341M736.434 361.364v29.34M751.104 376.034h-29.341M736.434 508.064v29.34M751.104 522.734h-29.341M736.434 288.014v29.34M751.104 302.684h-29.341M736.434 434.714v29.34M751.104 449.384h-29.341M736.434 581.415v29.34M751.104 596.085h-29.341M809.785-5.386v29.34M824.455 9.284h-29.34M809.783 141.314v29.34M824.453 155.984h-29.34M809.785 67.964v29.34M824.455 82.634h-29.34M809.785 214.664v29.34M824.455 229.334h-29.34M809.785 361.364v29.34M824.455 376.034h-29.34M809.783 508.064v29.34M824.453 522.734h-29.34M809.785 288.014v29.34M824.455 302.684h-29.34M809.783 434.714v29.34M824.453 449.384h-29.34M809.785 581.414v29.34M824.455 596.084h-29.34M883.135-5.386v29.34M897.805 9.284h-29.34M883.135 141.314v29.34M897.805 155.984h-29.34M883.135 67.964v29.34M897.805 82.634h-29.34M883.135 214.664v29.34M897.805 229.334h-29.34M883.135 361.364v29.34M897.805 376.034h-29.34M883.135 508.064v29.34M897.805 522.734h-29.34M883.135 288.014v29.34M897.805 302.684h-29.34M883.135 434.714v29.34M897.805 449.384h-29.34M883.135 581.414v29.34M897.805 596.084h-29.34M222.984 581.415v29.34M237.654 596.085h-29.34M222.982 434.714v29.34M237.652 449.384h-29.34M222.984 288.014v29.34M237.654 302.684h-29.34M222.982 141.314v29.34M237.652 155.984h-29.34M222.984-5.386v29.34M237.654 9.284h-29.34M222.984 67.964v29.34M237.654 82.634h-29.34M222.984 214.664v29.34M237.654 229.334h-29.34M222.984 361.364v29.34M237.654 376.034h-29.34M222.982 508.064v29.34M237.652 522.734h-29.34M369.684-5.386v29.34M384.354 9.284h-29.341M369.684 141.314v29.34M384.354 155.984h-29.341M369.684 288.014v29.34M384.354 302.684h-29.341M369.684 434.714v29.34M384.354 449.384h-29.341M369.684 581.415v29.34M384.354 596.085h-29.341M516.385 581.415v29.34M531.055 596.085h-29.34M516.385 434.714v29.34M531.055 449.384h-29.34M516.385 288.014v29.34M531.055 302.684h-29.34M516.383 141.314v29.34M531.053 155.984h-29.34M516.385-5.386v29.34M531.055 9.284h-29.34M663.084 581.415v29.34M677.754 596.085h-29.34M663.084 434.714v29.34M677.754 449.384h-29.34M663.084 288.014v29.34M677.754 302.684h-29.34M663.084 141.314v29.34M677.754 155.984h-29.34M663.084-5.386v29.34M677.754 9.284h-29.34M369.684 67.964v29.34M384.354 82.634h-29.341M516.383 67.964v29.34M531.053 82.634h-29.34M663.084 67.964v29.34M677.754 82.634h-29.34M369.684 214.664v29.34M384.354 229.334h-29.341M516.383 214.664v29.34M531.053 229.334h-29.34M663.084 214.664v29.34M677.754 229.334h-29.34M369.684 361.364v29.34M384.354 376.034h-29.341M516.385 361.364v29.34M531.055 376.034h-29.34M663.084 361.364v29.34M677.754 376.034h-29.34M369.684 508.064v29.34M384.354 522.734h-29.341M516.383 508.064v29.34M531.053 522.734h-29.34M663.084 508.064v29.34M677.754 522.734h-29.34"/><circle cx="479.5" cy="303.5" r="598.5" fill="url(#b)"/></g><defs><radialGradient id="b" cx="0" cy="0" r="1" gradientTransform="rotate(90 88 391.5) scale(598.5)" gradientUnits="userSpaceOnUse"><stop stop-color="#001932" stop-opacity="0"/><stop offset=".681" stop-color="#001932"/></radialGradient><clipPath id="a"><path fill="#fff" d="M0-111h959v828H0z"/></clipPath></defs></svg>