<svg xmlns="http://www.w3.org/2000/svg" width="52" height="386" viewBox="0 0 52 386"><defs><linearGradient id="a" x1="0%" x2="0%" y1="0%" y2="100%"><stop offset="0%" stop-color="#fff" stop-opacity="0"/><stop offset="30%" stop-color="#fff" stop-opacity=".05"/><stop offset="70%" stop-color="#fff" stop-opacity=".15"/><stop offset="100%" stop-color="#fff" stop-opacity=".3"/></linearGradient><mask id="b"><rect width="100%" height="100%" fill="url(#a)"/></mask></defs><g mask="url(#b)"><path stroke="#E5E5EC" stroke-opacity=".32" stroke-width=".9" d="M0 351.8h52M0 226.7h52M0 101.6h52M0 289.2h52M0 164.1h52M0 39h52M26.7-88.6v630.5"/><path stroke="#BAC1C9" stroke-width="1.7" d="M26.7 89.1v25m12.5-12.5h-25m12.5-75.1v25M39.2 39h-25m12.5 112.6v25m12.5-12.5h-25m12.5 112.6v25m12.5-12.5h-25m12.5-75v25m12.5-12.5h-25m12.5 112.6v25m12.5-12.5h-25"/></g></svg>
