<svg
  width="959"
  height="384"
  viewBox="0 0 959 384"
  fill="none"
  xmlns="http://www.w3.org/2000/svg"
  >
  <defs>
    <mask id="fadeToTransparent">
      <rect
        width="959"
        height="384"
        fill="white"
        />
      <circle
        cx="480"
        cy="192"
        r="599"
        fill="url(#radialFade)"
        />
    </mask>
    <radialGradient
      id="radialFade"
      cx="0.5"
      cy="0.5"
      r="0.5"
      >
      <stop
        offset="0"
        stop-color="white"
        />
      <stop
        offset="0.68"
        stop-color="black"
        />
    </radialGradient>
  </defs>
  <g
    opacity="0.32"
    mask="url(#fadeToTransparent)"
    >
    <path
      d="M0 45h959"
      stroke="#E5E5EC"
      stroke-opacity="0.32"
      />
    <path
      d="M0 118h959"
      stroke="#E5E5EC"
      stroke-opacity="0.32"
      />
    <path
      d="M0 192h959"
      stroke="#E5E5EC"
      stroke-opacity="0.32"
      />
    <path
      d="M0 265h959"
      stroke="#E5E5EC"
      stroke-opacity="0.32"
      />
    <path
      d="M0 338h959"
      stroke="#E5E5EC"
      stroke-opacity="0.32"
      />
    <path
      d="M76 0v384"
      stroke="#E5E5EC"
      stroke-opacity="0.32"
      />
    <path
      d="M150 0v384"
      stroke="#E5E5EC"
      stroke-opacity="0.32"
      />
    <path
      d="M223 0v384"
      stroke="#E5E5EC"
      stroke-opacity="0.32"
      />
    <path
      d="M296 0v384"
      stroke="#E5E5EC"
      stroke-opacity="0.32"
      />
    <path
      d="M370 0v384"
      stroke="#E5E5EC"
      stroke-opacity="0.32"
      />
    <path
      d="M443 0v384"
      stroke="#E5E5EC"
      stroke-opacity="0.32"
      />
    <path
      d="M516 0v384"
      stroke="#E5E5EC"
      stroke-opacity="0.32"
      />
    <path
      d="M590 0v384"
      stroke="#E5E5EC"
      stroke-opacity="0.32"
      />
    <path
      d="M663 0v384"
      stroke="#E5E5EC"
      stroke-opacity="0.32"
      />
    <path
      d="M736 0v384"
      stroke="#E5E5EC"
      stroke-opacity="0.32"
      />
    <path
      d="M810 0v384"
      stroke="#E5E5EC"
      stroke-opacity="0.32"
      />
    <path
      d="M883 0v384"
      stroke="#E5E5EC"
      stroke-opacity="0.32"
      />
    <g
      stroke="#00A1E3"
      stroke-width="2"
      >
      <path d="M76 30v30" />
      <path d="M61 45h30" />
      <path d="M150 30v30" />
      <path d="M135 45h30" />
      <path d="M223 30v30" />
      <path d="M208 45h30" />
      <path d="M296 30v30" />
      <path d="M281 45h30" />
      <path d="M370 30v30" />
      <path d="M355 45h30" />
      <path d="M443 30v30" />
      <path d="M428 45h30" />
      <path d="M516 30v30" />
      <path d="M501 45h30" />
      <path d="M590 30v30" />
      <path d="M575 45h30" />
      <path d="M663 30v30" />
      <path d="M648 45h30" />
      <path d="M736 30v30" />
      <path d="M721 45h30" />
      <path d="M810 30v30" />
      <path d="M795 45h30" />
      <path d="M883 30v30" />
      <path d="M868 45h30" />
      <path d="M76 103v30" />
      <path d="M61 118h30" />
      <path d="M150 103v30" />
      <path d="M135 118h30" />
      <path d="M223 103v30" />
      <path d="M208 118h30" />
      <path d="M296 103v30" />
      <path d="M281 118h30" />
      <path d="M370 103v30" />
      <path d="M355 118h30" />
      <path d="M443 103v30" />
      <path d="M428 118h30" />
      <path d="M516 103v30" />
      <path d="M501 118h30" />
      <path d="M590 103v30" />
      <path d="M575 118h30" />
      <path d="M663 103v30" />
      <path d="M648 118h30" />
      <path d="M736 103v30" />
      <path d="M721 118h30" />
      <path d="M810 103v30" />
      <path d="M795 118h30" />
      <path d="M883 103v30" />
      <path d="M868 118h30" />
      <path d="M76 177v30" />
      <path d="M61 192h30" />
      <path d="M150 177v30" />
      <path d="M135 192h30" />
      <path d="M223 177v30" />
      <path d="M208 192h30" />
      <path d="M296 177v30" />
      <path d="M281 192h30" />
      <path d="M370 177v30" />
      <path d="M355 192h30" />
      <path d="M443 177v30" />
      <path d="M428 192h30" />
      <path d="M516 177v30" />
      <path d="M501 192h30" />
      <path d="M590 177v30" />
      <path d="M575 192h30" />
      <path d="M663 177v30" />
      <path d="M648 192h30" />
      <path d="M736 177v30" />
      <path d="M721 192h30" />
      <path d="M810 177v30" />
      <path d="M795 192h30" />
      <path d="M883 177v30" />
      <path d="M868 192h30" />
      <path d="M76 250v30" />
      <path d="M61 265h30" />
      <path d="M150 250v30" />
      <path d="M135 265h30" />
      <path d="M223 250v30" />
      <path d="M208 265h30" />
      <path d="M296 250v30" />
      <path d="M281 265h30" />
      <path d="M370 250v30" />
      <path d="M355 265h30" />
      <path d="M443 250v30" />
      <path d="M428 265h30" />
      <path d="M516 250v30" />
      <path d="M501 265h30" />
      <path d="M590 250v30" />
      <path d="M575 265h30" />
      <path d="M663 250v30" />
      <path d="M648 265h30" />
      <path d="M736 250v30" />
      <path d="M721 265h30" />
      <path d="M810 250v30" />
      <path d="M795 265h30" />
      <path d="M883 250v30" />
      <path d="M868 265h30" />
      <path d="M76 323v30" />
      <path d="M61 338h30" />
      <path d="M150 323v30" />
      <path d="M135 338h30" />
      <path d="M223 323v30" />
      <path d="M208 338h30" />
      <path d="M296 323v30" />
      <path d="M281 338h30" />
      <path d="M370 323v30" />
      <path d="M355 338h30" />
      <path d="M443 323v30" />
      <path d="M428 338h30" />
      <path d="M516 323v30" />
      <path d="M501 338h30" />
      <path d="M590 323v30" />
      <path d="M575 338h30" />
      <path d="M663 323v30" />
      <path d="M648 338h30" />
      <path d="M736 323v30" />
      <path d="M721 338h30" />
      <path d="M810 323v30" />
      <path d="M795 338h30" />
      <path d="M883 323v30" />
      <path d="M868 338h30" />
    </g>
  </g>
</svg>
